# xmcd
#
# Track frame offsets:
#	150
#	26223
#	41765
#	54618
#	81540
#	109958
#	127781
#	144898
#	159646
#	171022
#	190549
#	202139
#	233379
#	251144
#	267531
#	293245
#	309351
#	326235
#	339720
#	360721
#	373756
#	382640
#
# Disc length: 5240 seconds
#
# Revision: 0
# Processed by: cddbd v1.5.2PL0 Copyright (c) Steve Scherf et al.
# Submitted via: audiograbber 1.83.01
#
DISCID=51147616
DTITLE=Chuck Berry - Rock And Roll Music - Any Old Way You Choose It [CD 09) - 
DTITLE=Studio 1972-1974
DYEAR=2014
DGENRE=Rock and Roll
TTITLE0=Mean Old World [1972]
TTITLE1=I Love You [1972]
TTITLE2=I Will Not Let You Go [1972]
TTITLE3=London Berry Blues [instrumental] [1972]
TTITLE4=Blues #1 [instrumental] [2010]
TTITLE5=Annie Lou [2010]
TTITLE6=Rain Eyes [1973]
TTITLE7=You And My Country [2010]
TTITLE8=Sue Answer [1975]
TTITLE9=Got It And Gone [1973]
TTITLE10=A Deuce [1975]
TTITLE11=Talkin' About My Buddy [1973]
TTITLE12=Hello Little Girl Goodbye [1973]
TTITLE13=One Sixty Nine AM [instrumental] [2010]
TTITLE14=Aimlessly Driftin' [1973]
TTITLE15=Woodpecker [instrumental] [1973]
TTITLE16=Bio [1973]
TTITLE17=Roll Away [2010]
TTITLE18=Hi-Heel Sneakers [1975]
TTITLE19=Jambalaya [2010]
TTITLE20=The Song Of My Love [2010]
TTITLE21=South Of The Border [1975]
EXTD=
EXTT0=
EXTT1=
EXTT2=
EXTT3=
EXTT4=
EXTT5=
EXTT6=
EXTT7=
EXTT8=
EXTT9=
EXTT10=
EXTT11=
EXTT12=
EXTT13=
EXTT14=
EXTT15=
EXTT16=
EXTT17=
EXTT18=
EXTT19=
EXTT20=
EXTT21=
PLAYORDER=
